HIERARCHY
ROOT base
{
	OFFSET 0.0 0.0 0.0
	CHANNELS 6 Xposition Yposition Zposition Zrotation Yrotation Xrotation
	JOINT root
	{
		OFFSET 0 0 0
		CHANNELS 6 Xposition Yposition Zposition Zrotation Yrotation Xrotation
		JOINT chest
		{
			OFFSET 0 4.72302 0
			CHANNELS 3 Zrotation Yrotation Xrotation
			JOINT neck
			{
				OFFSET 0 4.47788 0
				CHANNELS 3 Zrotation Yrotation Xrotation
				End Site
				{
					OFFSET 0.0 0.0 0.0
				}
			}
			JOINT right_shoulder
			{
				OFFSET -0.481 4.87 3.6622
				CHANNELS 3 Zrotation Yrotation Xrotation
				JOINT right_elbow
				{
					OFFSET 0 -5.49576 0
					CHANNELS 3 Zrotation Yrotation Xrotation
					JOINT right_wrist
					{
						OFFSET 0 -5.17894 0
						CHANNELS 3 Zrotation Yrotation Xrotation
						End Site
						{
							OFFSET 0.0 0.0 0.0
						}
					}
				}
			}
			JOINT left_shoulder
			{
				OFFSET -0.481 4.87 -3.6622
				CHANNELS 3 Zrotation Yrotation Xrotation
				JOINT left_elbow
				{
					OFFSET 0 -5.49576 0
					CHANNELS 3 Zrotation Yrotation Xrotation
					JOINT left_wrist
					{
						OFFSET 0 -5.17894 0
						CHANNELS 3 Zrotation Yrotation Xrotation
						End Site
						{
							OFFSET 0.0 0.0 0.0
						}
					}
				}
			}
		}
		JOINT right_hip
		{
			OFFSET 0 0 1.69774
			CHANNELS 3 Zrotation Yrotation Xrotation
			JOINT right_knee
			{
				OFFSET 0 -8.43092 0
				CHANNELS 3 Zrotation Yrotation Xrotation
				JOINT right_ankle
				{
					OFFSET 0 -8.1974 0
					CHANNELS 3 Zrotation Yrotation Xrotation
					End Site
					{
						OFFSET 0.0 0.0 0.0
					}
				}
			}
		}
		JOINT left_hip
		{
			OFFSET 0 0 -1.69774
			CHANNELS 3 Zrotation Yrotation Xrotation
			JOINT left_knee
			{
				OFFSET 0 -8.43092 0
				CHANNELS 3 Zrotation Yrotation Xrotation
				JOINT left_ankle
				{
					OFFSET 0 -8.1974 0
					CHANNELS 3 Zrotation Yrotation Xrotation
					End Site
					{
						OFFSET 0.0 0.0 0.0
					}
				}
			}
		}
	}
	JOINT red_arrow
	{
		OFFSET 0 0 0
		CHANNELS 3 Zrotation Yrotation Xrotation
		End Site
		{
			OFFSET 0.0 0.0 0.0
		}
	}
	JOINT blue_arrow
	{
		OFFSET 0 0 0
		CHANNELS 3 Zrotation Yrotation Xrotation
		End Site
		{
			OFFSET 0.0 0.0 0.0
		}
	}
}
MOTION
Frames: 7
Frame Time: 0.0333333333333333
189.19357047379 0 8.64861343204975 0 -20.128947172602 0 0 16.9532746434212 0 -6.85091114260621 4.63096850416677 2.91690346709972 -2.49886761764375 2.66115726727381 3.13947475002378 2.47730347027184 4.01593972282396 1.8340037112417 -16.5551131787093 -13.1818367027676 -11.7405714427794 8.60950638276714 0 0 0 0 0 10.9254564304504 -36.5270865980869 23.7909617097453 36.5378783989298 0 0 0 0 0 43.4345109512387 -10.4394845202951 -9.08358574930205 -28.0048086631642 0 0 3.36496949477268 -7.78337807463594 -4.44647810132911 -9.10440632262287 10.0437060277251 -5.32801060667335 0.00106192339023465 0 0 15.3509664521696 -16.2871916827088 -1.04384761311493 0 0 0 0 0 0
189.778946782649 0 9.04998552799225 0 -19.8875105234984 0 0 16.7734990119934 0 -8.0315522447939 4.54249005217188 2.5675214324894 -3.86894339588996 2.67806104807384 3.604365738431 1.77168498467158 5.0721732381588 2.43506556936647 -16.6621276125971 -13.7756868870927 -11.4376593966141 8.09429752971026 0 0 0 0 0 12.0485476436887 -36.8748020995079 23.5448239763173 38.1616807420194 0 0 0 0 0 40.6137941407705 -11.954331860804 -6.65110507828104 -20.1017402085151 0 0 1.07404833126315 -5.02202075786272 -3.37607682684468 -9.7647415544577 10.4657980348117 -4.13247564513228 -0.75405699315508 0 0 18.3281334147969 -16.5318101076481 -2.45825174549412 0 0 0 0 0 0
190.382537156343 0 9.51602676957846 0 -19.6856236666042 0 0 16.5670211434364 0 -9.51928832014836 3.78318501381191 1.52351439941349 -4.6346602194029 3.25127190581174 4.63069695221731 1.10616191353075 6.02081454558258 2.73273086397281 -16.3600354152961 -13.8878412171528 -11.340565368664 8.06938014584441 0 0 0 0 0 12.8003943251797 -36.5988217620422 22.913486405744 39.2065357604913 0 0 0 0 0 37.4111462338739 -11.9696734211022 -3.23665580279849 -13.996148732076 0 0 -9.66409587751555 -3.46250730319277 -4.96860772682495 -9.53886698641033 11.265274077495 -2.04872387451461 -2.76767738872356 0 0 21.9941243272922 -16.2062805102756 -3.92213193757806 0 0 0 0 0 0
190.861672860384 0 10.0749396041036 0 -19.64004890392 0 0 16.6049199223518 0 -11.1786935409431 0.849494086856352 -1.19435760064507 -4.47993694707588 4.13545721099898 5.82262408947754 -0.67719253414398 6.42260872114944 2.86342851465565 -15.2971899857579 -13.0088425292734 -11.0062788165129 8.35329147284798 0 0 0 0 0 12.8645938146002 -35.4258849623986 21.5845789113184 38.8890207565449 0 0 0 0 0 36.0259397121146 -11.4342764016302 2.05074905753855 -13.7788829758989 0 0 -10.4855916414496 -3.94811398633829 -5.67809210413173 -7.21852278088725 12.9433354375604 2.05515148058947 -7.12975230238622 0 0 21.7621870970044 -15.0596402426037 -3.93198414888457 0 0 0 0 0 0
191.462417393923 0 10.5094096750021 0 -19.6838614348789 0 0 16.7850190162659 0 -11.4118824067878 -0.815983169637628 -1.9084723965756 -3.43105924437558 3.39420510596699 5.60286291324688 -1.7343750492214 4.83896008741265 1.97923105945224 -14.8068007945943 -11.3843229734261 -10.0244852253986 9.01748041208117 0 0 0 0 0 11.3275102891302 -33.2776127472055 19.7228114209413 37.3647137790948 0 0 0 0 0 33.0502411355017 -10.3264482468191 4.47378408713356 -12.9790635552221 0 0 -8.36207507286968 -4.00596241027068 -5.96236107911555 -4.80841776367909 12.3390160295299 3.61371695523565 -15.1009950095754 0 0 16.1491973476942 -12.7762064015245 -1.50344886201702 0 0 0 0 0 0
192.140148818493 0 10.9360705628991 0 -19.8329815971054 0 0 16.9244772434235 0 -10.2996002597187 -2.78770097262119 -2.29683538056441 -2.48891663712165 1.01623604641803 5.46573407070478 -1.66451044796408 3.18036081328197 1.36955965346226 -13.9391027572819 -2.14515920949301 -8.89941562511504 9.78601585881195 0 0 0 0 0 8.81501344866367 -26.9231570656467 18.6296855558463 34.9923431935393 0 0 0 0 0 29.6940039900528 -8.03601891039017 6.45229683498539 -14.004919548744 0 0 -5.21251470738183 -4.47520502505822 -6.02859949137719 -2.81627209180815 11.4054654916596 4.35186062279766 -24.4515632569106 0 0 8.46011271742923 -11.899951197002 2.13772488207573 0 0 0 0 0 0
192.788530614972 0 11.3719791531563 0 -20.0692888611058 0 0 17.0257152199745 0 -8.92922838411097 -4.4356433101427 -2.81426442381884 -1.38124750423919 -0.933487927259569 4.7132159332651 -0.917902932505077 1.8977508820558 0.928395342781505 -13.0319960609344 4.38764729826268 -8.14866491013952 10.6538246900343 0 0 0 0 0 6.71631597838986 -21.8899679476544 17.0362527248398 32.3328280401818 0 0 0 0 0 26.1846167448407 -5.88420854600943 8.28749147242932 -14.8657547568237 0 0 -2.21155846713831 -4.90848818749546 -6.21945275262218 0.406483812507124 10.0555601523924 5.40289485695733 -34.1397819058654 0 0 1.46358664268178 -11.6276616655657 5.05532543778115 0 0 0 0 0 0
